<svg xmlns="http://www.w3.org/2000/svg" width="180" height="20.01" overflow="visible"><path fill="#fff" d="M53.11 16.04h-5.19V4.19h4.61c.8 0 1.49.1 2.08.29.58.19 1.02.45 1.31.78.53.61.8 1.3.8 2.07 0 .93-.3 1.62-.9 2.07a3 3 0 01-.42.3c-.08.04-.22.1-.42.19.73.16 1.32.49 1.75.99.43.5.65 1.13.65 1.87 0 .82-.28 1.55-.85 2.19-.65.73-1.79 1.1-3.42 1.1zm-2.54-7.05h1.25c.73 0 1.28-.08 1.64-.24.36-.16.53-.5.53-1.03s-.16-.87-.49-1.04c-.33-.17-.88-.25-1.66-.25h-1.27v2.56zm0 4.81h1.81c.76 0 1.32-.09 1.7-.28.38-.19.57-.55.57-1.1s-.2-.91-.6-1.09c-.4-.17-1.04-.26-1.92-.26h-1.56v2.73zM71.62 8.12c0 1.9-.75 3.12-2.25 3.68l3 4.24h-3.25l-2.63-3.78h-1.83v3.78h-2.64V4.19h4.49c1.84 0 3.16.31 3.94.93.78.62 1.17 1.62 1.17 3zm-3.19 1.41c.33-.29.49-.76.49-1.4 0-.64-.17-1.08-.51-1.31-.34-.24-.93-.36-1.78-.36h-1.98v3.51h1.93c.91 0 1.53-.15 1.85-.44zM77.72 4.19h2.64v11.85h-2.64V4.19zM95.72 5.74c1.13 1.03 1.7 2.47 1.7 4.31 0 1.84-.55 3.3-1.65 4.37-1.1 1.07-2.78 1.61-5.04 1.61h-4.05V4.19h4.19c2.1 0 3.72.52 4.85 1.55zm-1.94 7.04c.65-.61.97-1.5.97-2.66 0-1.16-.33-2.06-.97-2.69-.65-.63-1.65-.94-2.99-.94h-1.47v7.2H91c1.2.01 2.13-.3 2.78-.91zM109.77 10h2.66v4.2c-1.18 1.31-2.8 1.97-4.88 1.97-1.74 0-3.2-.58-4.38-1.73-1.18-1.15-1.77-2.61-1.77-4.36 0-1.76.6-3.22 1.81-4.4 1.2-1.17 2.66-1.76 4.36-1.76 1.7 0 3.18.56 4.43 1.68l-1.37 1.98c-.53-.46-1.02-.78-1.47-.96-.45-.17-.93-.26-1.45-.26-1.01 0-1.85.34-2.54 1.03-.69.68-1.03 1.58-1.03 2.7s.33 2.01.99 2.69c.66.67 1.45 1.01 2.36 1.01.92 0 1.68-.18 2.29-.53V10zM126.39 4.19v2.36h-5.9v2.44h5.31v2.25h-5.31v2.46h6.09v2.34h-8.73V4.19h8.54zM132.52 15.74c-.29-.29-.43-.64-.43-1.06 0-.42.14-.77.43-1.06.29-.29.64-.43 1.06-.43.42 0 .77.14 1.06.43.29.29.43.64.43 1.06 0 .42-.14.77-.43 1.06-.29.29-.64.43-1.06.43-.42 0-.77-.14-1.06-.43zM148.88 4.19h2.64v11.85h-2.64l-5.64-7.42v7.42h-2.64V4.19h2.47l5.81 7.63V4.19zM165.69 4.19v2.36h-5.9v2.44h5.31v2.25h-5.31v2.46h6.09v2.34h-8.73V4.19h8.54zM176.64 6.48v9.56H174V6.48h-3.36V4.19H180v2.29h-3.36zM26.49 20.01h3.12v-6.67l-3.12-3.52v10.19zm5.91-3.52v3.52h3.12l-3.12-3.52zm-11.82 3.52h3.12V6.67l-3.12-3.52v16.86zM0 20.01h4.18L14.67 8.17v11.84h3.12V0L0 20.01z"/></svg>